<svg width="55" height="25" viewBox="0 0 55 25" fill="none" xmlns="http://www.w3.org/2000/svg">
<path d="M12 20.5C7.59 20.5 4 16.91 4 12.5C4 8.09 7.59 4.5 12 4.5C16.41 4.5 20 8.09 20 12.5C20 16.91 16.41 20.5 12 20.5ZM12 2.5C10.6868 2.5 9.38642 2.75866 8.17317 3.2612C6.95991 3.76375 5.85752 4.50035 4.92893 5.42893C3.05357 7.3043 2 9.84784 2 12.5C2 15.1522 3.05357 17.6957 4.92893 19.5711C5.85752 20.4997 6.95991 21.2362 8.17317 21.7388C9.38642 22.2413 10.6868 22.5 12 22.5C14.6522 22.5 17.1957 21.4464 19.0711 19.5711C20.9464 17.6957 22 15.1522 22 12.5C22 11.1868 21.7413 9.88642 21.2388 8.67317C20.7362 7.45991 19.9997 6.35752 19.0711 5.42893C18.1425 4.50035 17.0401 3.76375 15.8268 3.2612C14.6136 2.75866 13.3132 2.5 12 2.5ZM13 7.5H11V11.5H7V13.5H11V17.5H13V13.5H17V11.5H13V7.5Z" fill="#54473F"/>
<path d="M43 20.5C38.59 20.5 35 16.91 35 12.5C35 8.09 38.59 4.5 43 4.5C47.41 4.5 51 8.09 51 12.5C51 16.91 47.41 20.5 43 20.5ZM43 2.5C41.6868 2.5 40.3864 2.75866 39.1732 3.2612C37.9599 3.76375 36.8575 4.50035 35.9289 5.42893C34.0536 7.3043 33 9.84784 33 12.5C33 15.1522 34.0536 17.6957 35.9289 19.5711C36.8575 20.4997 37.9599 21.2362 39.1732 21.7388C40.3864 22.2413 41.6868 22.5 43 22.5C45.6522 22.5 48.1957 21.4464 50.0711 19.5711C51.9464 17.6957 53 15.1522 53 12.5C53 11.1868 52.7413 9.88642 52.2388 8.67317C51.7362 7.45991 50.9997 6.35752 50.0711 5.42893C49.1425 4.50035 48.0401 3.76375 46.8268 3.2612C45.6136 2.75866 44.3132 2.5 43 2.5ZM38 13.5H48V11.5H38" fill="#54473F"/>
</svg>
